<?xml version="1.0" encoding="utf-8"?>
<svg version="1.1" id="new" xmlns="http://www.w3.org/2000/svg" xmlns:xlink="http://www.w3.org/1999/xlink" x="0px" y="0px"
	 viewBox="-1.6 -1.6 400 400" enable-background="new -1.6 -1.6 400 400" xml:space="preserve">
<g>
	<path fill="#D10514" d="M178.1,170.4C178.1,170.4,178,170.4,178.1,170.4l-0.1,19.8c0,0,0.1,0,0.1,0c10.9,0,19.8,8.9,19.8,19.8
		c0,3.4-0.9,6.6-2.4,9.4l17.4,9.6c3.1-5.7,4.9-12.2,4.9-19.1C217.8,188.2,200,170.4,178.1,170.4z"/>
	<path fill="#ED1C24" d="M178.1,230c-7.2,0-13.5-3.9-17-9.6L144,230.4c6.9,11.6,19.6,19.4,34.1,19.4c15,0,28-8.3,34.8-20.6
		l-17.4-9.6C192.2,225.7,185.6,230,178.1,230z"/>
	<path fill="#FF1A1A" d="M158.3,210.1c0-10.9,8.9-19.8,19.8-19.8v-19.8c-21.8,0-39.6,17.8-39.6,39.7c0,7.4,2,14.4,5.6,20.3
		l17.1-10.1C159.3,217.3,158.3,213.8,158.3,210.1z"/>
</g>
<g>
	<path fill="#58595B" d="M42.1,170.4C42.1,170.4,42,170.4,42.1,170.4L42,190.3c0,0,0.1,0,0.1,0c10.9,0,19.8,8.9,19.8,19.8
		c0,3.4-0.9,6.6-2.4,9.4l17.4,9.6c3.1-5.7,4.9-12.2,4.9-19.1C81.8,188.2,64,170.4,42.1,170.4z"/>
	<path fill="#1E1815" d="M42.1,230c-7.2,0-13.5-3.9-17-9.6L8,230.4c6.9,11.6,19.6,19.4,34.1,19.4c15,0,28-8.3,34.8-20.6l-17.4-9.6
		C56.2,225.7,49.6,230,42.1,230z"/>
	<path fill="#414042" d="M22.3,210.1c0-10.9,8.9-19.8,19.8-19.8v-19.8c-21.8,0-39.6,17.8-39.6,39.7c0,7.4,2,14.4,5.6,20.3l17.1-10.1
		C23.3,217.3,22.3,213.8,22.3,210.1z"/>
</g>
<g>
	<path fill="#58595B" d="M354.3,170.4C354.3,170.4,354.3,170.4,354.3,170.4l-0.1,19.8c0,0,0.1,0,0.1,0c10.9,0,19.8,8.9,19.8,19.8
		c0,3.4-0.9,6.6-2.4,9.4l17.4,9.6c3.1-5.7,4.9-12.2,4.9-19.1C394,188.2,376.2,170.4,354.3,170.4z"/>
	<path fill="#1E1815" d="M354.3,229.9c-7.2,0-13.5-3.9-17-9.6l-17.1,10.1c6.9,11.6,19.6,19.4,34.1,19.4c15,0,28-8.3,34.8-20.6
		l-17.4-9.6C368.4,225.7,361.8,229.9,354.3,229.9z"/>
	<path fill="#414042" d="M334.5,210.1c0-10.9,8.9-19.8,19.8-19.8v-19.8c-21.8,0-39.6,17.8-39.6,39.7c0,7.4,2,14.4,5.6,20.3
		l17.1-10.1C335.6,217.3,334.5,213.8,334.5,210.1z"/>
</g>
<path fill="#ED1C24" d="M88.4,210.1v39.7h19.8v-39.7c0-10.9,8.9-19.9,19.8-19.9v-19.7C106.2,170.5,88.4,188.3,88.4,210.1z"/>
<rect x="229.4" y="170.4" fill="#1E1815" width="19.8" height="79.4"/>
<rect x="138.4" y="150.2" fill="#ED1C24" width="19.8" height="59.5"/>
<polygon fill="#1E1815" points="312.4,170.4 298,170.4 298,150.6 278.2,150.6 278.2,170.4 263.4,170.4 263.4,190.3 278.2,190.3 
	278.2,249.8 298,249.8 298,190.3 312.4,190.3 "/>
<g>
	<path fill="#1E1815" d="M76.9,226.4c0-5.5-4.4-9.9-9.9-9.9c-3.1,0-5.8,1.4-7.6,3.6l-0.1-0.1c0,0,0,0,0,0c-0.4,0.7-0.9,1.4-1.4,2.1
		c0,0,0,0,0,0.1c-0.2,0.3-0.5,0.6-0.8,0.9c0,0-0.1,0.1-0.1,0.1c-0.5,0.5-1,1-1.5,1.5c-0.1,0.1-0.2,0.2-0.3,0.3
		c-0.3,0.2-0.5,0.4-0.8,0.7c-0.2,0.1-0.3,0.3-0.5,0.4c-0.4,0.3-0.8,0.5-1.2,0.8c-0.2,0.2-0.5,0.3-0.8,0.5c-0.2,0.1-0.4,0.2-0.7,0.4
		c-0.3,0.2-0.7,0.4-1.1,0.5c-0.2,0.1-0.4,0.2-0.6,0.3c-0.4,0.2-0.8,0.3-1.3,0.5c-0.2,0.1-0.4,0.1-0.5,0.2c-0.5,0.2-1,0.3-1.6,0.4
		c-0.1,0-0.1,0-0.2,0c-0.5,0.1-1.1,0.2-1.7,0.3c-0.2,0-0.3,0-0.5,0c-0.6,0.1-1.2,0.1-1.8,0.1c-7.3,0-13.7-4-17.1-9.9c0,0,0,0,0,0
		l-0.1,0.1c1.4,1.7,2.3,3.9,2.3,6.3c0,5.5-4.4,9.9-9.9,9.9c-4.3,0-7.9-2.7-9.3-6.5l-0.2,0.1c6.9,11.9,19.7,19.9,34.3,19.9
		c0.8,0,1.6,0,2.5-0.1c0.2,0,0.5,0,0.7-0.1c0.6,0,1.2-0.1,1.8-0.2c0.2,0,0.5-0.1,0.7-0.1c0.8-0.1,1.6-0.2,2.4-0.4c0,0,0,0,0,0
		c0.8-0.2,1.5-0.4,2.3-0.6c0.2-0.1,0.4-0.1,0.6-0.2c0.6-0.2,1.2-0.4,1.8-0.6c0.2-0.1,0.3-0.1,0.5-0.2c1.5-0.5,3-1.2,4.4-1.9
		c0.1-0.1,0.3-0.1,0.4-0.2c0.6-0.3,1.2-0.7,1.9-1c0.1-0.1,0.2-0.1,0.3-0.1c1.4-0.8,2.8-1.8,4.1-2.8c0.1,0,0.1-0.1,0.2-0.1
		c0.6-0.5,1.3-1,1.9-1.5c0,0,0,0,0,0c1.3-1.1,2.5-2.3,3.6-3.6c0,0,0,0,0,0c1.7-1.9,3.2-4,4.4-6.2c0,0,0,0,0,0l-0.2-0.1
		C76.7,228.8,76.9,227.6,76.9,226.4z"/>
	<path fill="#414042" d="M32.2,180.3c0-5.5,4.4-9.9,9.9-9.9c-14.7,0-27.5,8-34.3,19.9l0,0c0,0,0,0.1,0,0.1c-0.3,0.5-0.5,0.9-0.8,1.4
		c-0.1,0.1-0.1,0.3-0.2,0.4c-0.2,0.4-0.4,0.8-0.6,1.2c-0.1,0.2-0.1,0.3-0.2,0.5c-0.2,0.4-0.4,0.8-0.5,1.2c-0.1,0.1-0.1,0.3-0.2,0.4
		c-0.2,0.5-0.4,1.1-0.6,1.7c0,0.1-0.1,0.2-0.1,0.2c-0.2,0.7-0.5,1.4-0.7,2.1c0,0.1-0.1,0.2-0.1,0.3c-0.4,1.6-0.7,3.1-1,4.8
		c0,0.2-0.1,0.4-0.1,0.6c-0.1,0.6-0.1,1.2-0.2,1.8c0,0.2,0,0.5-0.1,0.7c0,0.8-0.1,1.6-0.1,2.4s0,1.6,0.1,2.4c0,0.2,0,0.5,0.1,0.7
		c0,0.6,0.1,1.2,0.2,1.8c0,0.2,0.1,0.4,0.1,0.6c0.2,1.6,0.6,3.2,1,4.8c0,0.1,0.1,0.2,0.1,0.3c0.2,0.7,0.4,1.4,0.7,2.1
		c0,0.1,0.1,0.2,0.1,0.2c0.8,2.4,1.9,4.7,3.1,6.8c0,0,0,0,0,0l0.2-0.1c1.4,3.8,5,6.5,9.3,6.5c5.5,0,9.9-4.4,9.9-9.9
		c0-2.4-0.9-4.6-2.3-6.3L25,220c0,0,0,0,0,0c-0.2-0.4-0.4-0.7-0.6-1.1c0,0,0-0.1-0.1-0.1c-0.3-0.6-0.6-1.2-0.8-1.9
		c-0.1-0.2-0.1-0.4-0.2-0.5c-0.1-0.3-0.2-0.6-0.3-0.9c-0.1-0.3-0.2-0.7-0.3-1.1c-0.1-0.2-0.1-0.5-0.2-0.7c-0.1-0.5-0.2-0.9-0.2-1.4
		c0-0.2,0-0.3-0.1-0.5c-0.1-0.6-0.1-1.2-0.1-1.8c0-0.6,0-1.2,0.1-1.8c0-0.2,0-0.3,0-0.5c0.1-0.5,0.1-1,0.2-1.6
		c0-0.2,0.1-0.4,0.1-0.5c0.1-0.4,0.2-0.7,0.3-1.1c0.1-0.3,0.2-0.5,0.2-0.8c0.1-0.3,0.2-0.5,0.3-0.8c0.2-0.5,0.4-1,0.6-1.4
		c0.1-0.1,0.1-0.3,0.2-0.4c0.2-0.3,0.3-0.6,0.5-1c3.3-5.7,9.3-9.6,16.2-10C36.1,189.7,32.2,185.5,32.2,180.3z"/>
	<path fill="#58595B" d="M76.5,190.3L76.5,190.3c0-0.1-0.1-0.1-0.1-0.2c-0.2-0.4-0.4-0.7-0.7-1.1c-0.1-0.2-0.2-0.3-0.3-0.5
		c-0.2-0.4-0.5-0.7-0.7-1.1c-0.1-0.2-0.2-0.3-0.3-0.5c-0.3-0.4-0.5-0.7-0.8-1.1c-0.1-0.1-0.2-0.3-0.3-0.4c-0.4-0.5-0.8-1-1.2-1.4
		c0,0,0,0,0,0c-1.1-1.3-2.3-2.5-3.6-3.6c0,0,0,0,0,0c-0.6-0.5-1.2-1-1.9-1.5c-0.1,0-0.1-0.1-0.2-0.1c-1.3-1-2.7-1.9-4.1-2.8
		c-0.1-0.1-0.2-0.1-0.3-0.1c-0.6-0.4-1.2-0.7-1.9-1c-0.1-0.1-0.3-0.1-0.4-0.2c-1.4-0.7-2.9-1.3-4.4-1.9c-0.2-0.1-0.3-0.1-0.5-0.2
		c-0.6-0.2-1.2-0.4-1.8-0.6c-0.2-0.1-0.4-0.1-0.6-0.2c-0.8-0.2-1.5-0.4-2.3-0.6c0,0,0,0,0,0c-0.8-0.2-1.6-0.3-2.4-0.4
		c-0.2,0-0.4-0.1-0.7-0.1c-0.6-0.1-1.2-0.1-1.8-0.2c-0.2,0-0.5,0-0.7-0.1c-0.8,0-1.6-0.1-2.5-0.1c-5.5,0-9.9,4.4-9.9,9.9
		c0,5.1,3.9,9.4,8.9,9.9c0.3,0,0.7-0.1,1-0.1c4.3,0,8.3,1.4,11.5,3.7c0,0,0.1,0.1,0.1,0.1c0.4,0.3,0.9,0.7,1.3,1
		c0.1,0,0.1,0.1,0.2,0.1c0.4,0.4,0.8,0.7,1.2,1.1c0.1,0.1,0.3,0.3,0.4,0.4c0.2,0.2,0.4,0.5,0.7,0.8c0.2,0.2,0.3,0.4,0.5,0.6
		c0.2,0.3,0.4,0.5,0.6,0.8c0.2,0.3,0.5,0.7,0.7,1.1c1.8,3,2.9,6.5,2.9,10.2c0,3.6-1,7-2.7,10c0,0,0,0,0,0l0.1,0.1
		c1.8-2.2,4.6-3.6,7.6-3.6c5.5,0,9.9,4.4,9.9,9.9c0,1.2-0.2,2.4-0.6,3.4l0.2,0.1c3.4-5.8,5.3-12.6,5.3-19.8
		C81.8,202.9,79.8,196.1,76.5,190.3z"/>
</g>
<g>
	<rect x="374.2" y="210.1" fill="#1E1815" width="19.8" height="39.7"/>
	<g>
		<path fill="#1E1815" d="M392.1,203.2c-3.2-4.5-9.4-5.5-13.8-2.3c-2.5,1.8-3.9,4.5-4.1,7.3l-0.1,0c0,0,0,0,0,0
			c0.1,0.8,0.1,1.7,0.1,2.5c0,0,0,0,0,0.1c0,0.4,0,0.8-0.1,1.2c0,0.1,0,0.1,0,0.2c-0.1,0.7-0.2,1.4-0.3,2.1c0,0.1-0.1,0.3-0.1,0.4
			c-0.1,0.3-0.2,0.7-0.3,1c-0.1,0.2-0.1,0.4-0.2,0.6c-0.1,0.4-0.3,0.9-0.5,1.3c-0.1,0.3-0.2,0.5-0.3,0.8c-0.1,0.2-0.2,0.5-0.3,0.7
			c-0.2,0.4-0.4,0.7-0.6,1c-0.1,0.2-0.2,0.4-0.3,0.6c-0.2,0.4-0.5,0.8-0.8,1.1c-0.1,0.1-0.2,0.3-0.3,0.4c-0.3,0.4-0.7,0.8-1,1.2
			c0,0-0.1,0.1-0.1,0.1c-0.4,0.4-0.8,0.8-1.2,1.2c-0.1,0.1-0.2,0.2-0.3,0.3c-0.5,0.4-0.9,0.8-1.4,1.1c-5.9,4.2-13.4,4.7-19.7,1.9
			c0,0,0,0,0,0l-0.1,0.1c2.2,0.6,4.2,1.9,5.6,3.8c3.2,4.5,2.1,10.7-2.3,13.8c-3.5,2.5-8,2.4-11.3,0.1l-0.1,0.2
			c12.5,5.7,27.6,4.7,39.5-3.8c0.7-0.5,1.3-1,2-1.5c0.2-0.1,0.4-0.3,0.5-0.5c0.5-0.4,0.9-0.8,1.4-1.2c0.2-0.2,0.3-0.3,0.5-0.5
			c0.6-0.6,1.2-1.1,1.7-1.7c0,0,0,0,0,0c0.5-0.6,1.1-1.2,1.6-1.8c0.1-0.2,0.3-0.3,0.4-0.5c0.4-0.5,0.8-1,1.1-1.5
			c0.1-0.1,0.2-0.3,0.3-0.4c0.9-1.3,1.8-2.7,2.5-4.1c0.1-0.1,0.1-0.3,0.2-0.4c0.3-0.6,0.6-1.3,0.9-1.9c0-0.1,0.1-0.2,0.1-0.3
			c0.7-1.5,1.2-3,1.7-4.6c0-0.1,0-0.1,0.1-0.2c0.2-0.8,0.4-1.5,0.6-2.3c0,0,0,0,0,0c0.4-1.6,0.7-3.3,0.8-5c0,0,0,0,0,0
			c0.2-2.5,0.3-5.1,0-7.6c0,0,0,0,0,0l-0.2,0C393.3,205.2,392.8,204.2,392.1,203.2z"/>
		<path fill="#414042" d="M329,191.6c-3.2-4.5-2.1-10.7,2.3-13.8c-11.9,8.5-17.7,22.5-16.5,36.1l0,0c0,0,0,0.1,0,0.1
			c0.1,0.5,0.1,1.1,0.2,1.6c0,0.2,0,0.3,0.1,0.5c0.1,0.4,0.1,0.8,0.2,1.3c0,0.2,0.1,0.3,0.1,0.5c0.1,0.4,0.2,0.9,0.3,1.3
			c0,0.1,0.1,0.3,0.1,0.4c0.1,0.6,0.3,1.1,0.5,1.7c0,0.1,0,0.2,0.1,0.2c0.2,0.7,0.4,1.4,0.7,2.1c0,0.1,0.1,0.2,0.1,0.3
			c0.6,1.5,1.2,3,2,4.5c0.1,0.2,0.2,0.4,0.3,0.6c0.3,0.5,0.6,1.1,0.9,1.6c0.1,0.2,0.2,0.4,0.4,0.6c0.4,0.7,0.9,1.4,1.3,2
			c0.5,0.7,1,1.3,1.5,1.9c0.1,0.2,0.3,0.4,0.4,0.5c0.4,0.5,0.8,0.9,1.2,1.4c0.1,0.2,0.3,0.3,0.4,0.5c1.1,1.2,2.3,2.3,3.6,3.3
			c0.1,0.1,0.2,0.1,0.2,0.2c0.6,0.5,1.2,0.9,1.8,1.4c0.1,0,0.1,0.1,0.2,0.1c2.1,1.5,4.3,2.7,6.5,3.8c0,0,0,0,0,0l0.1-0.2
			c3.3,2.3,7.9,2.4,11.3-0.1c4.5-3.2,5.5-9.4,2.3-13.8c-1.4-2-3.4-3.3-5.6-3.8l0.1-0.1c0,0,0,0,0,0c-0.4-0.2-0.8-0.4-1.1-0.5
			c0,0-0.1,0-0.1-0.1c-0.6-0.3-1.2-0.7-1.8-1.1c-0.2-0.1-0.3-0.2-0.5-0.3c-0.2-0.2-0.5-0.4-0.7-0.5c-0.3-0.2-0.6-0.5-0.8-0.7
			c-0.2-0.2-0.4-0.3-0.6-0.5c-0.3-0.3-0.7-0.7-1-1c-0.1-0.1-0.2-0.3-0.3-0.4c-0.4-0.4-0.8-0.9-1.1-1.4c-0.3-0.5-0.7-1-1-1.5
			c-0.1-0.1-0.2-0.3-0.2-0.4c-0.3-0.5-0.5-0.9-0.7-1.4c-0.1-0.2-0.1-0.3-0.2-0.5c-0.1-0.4-0.3-0.7-0.4-1.1c-0.1-0.3-0.2-0.5-0.3-0.8
			c-0.1-0.3-0.1-0.5-0.2-0.8c-0.1-0.5-0.2-1-0.3-1.5c0-0.2-0.1-0.3-0.1-0.5c-0.1-0.4-0.1-0.7-0.1-1.1c-0.6-6.5,2-13.2,7.4-17.5
			C337.6,197,332,195.8,329,191.6z"/>
		<path fill="#58595B" d="M370.8,174L370.8,174c-0.1,0-0.1-0.1-0.2-0.1c-0.4-0.2-0.8-0.3-1.2-0.5c-0.2-0.1-0.4-0.2-0.5-0.2
			c-0.4-0.2-0.8-0.3-1.2-0.4c-0.2-0.1-0.4-0.1-0.5-0.2c-0.4-0.1-0.9-0.3-1.3-0.4c-0.2,0-0.3-0.1-0.5-0.1c-0.6-0.2-1.2-0.3-1.8-0.5
			c0,0,0,0,0,0c-1.6-0.4-3.3-0.7-5-0.9c0,0,0,0,0,0c-0.8-0.1-1.6-0.1-2.4-0.2c-0.1,0-0.2,0-0.2,0c-1.6-0.1-3.3,0-4.9,0.1
			c-0.1,0-0.2,0-0.3,0c-0.7,0.1-1.4,0.1-2.1,0.2c-0.1,0-0.3,0-0.4,0.1c-1.6,0.2-3.1,0.6-4.7,1c-0.2,0-0.3,0.1-0.5,0.2
			c-0.6,0.2-1.2,0.4-1.8,0.6c-0.2,0.1-0.4,0.1-0.6,0.2c-0.7,0.3-1.5,0.6-2.2,0.9c0,0,0,0,0,0c-0.7,0.3-1.5,0.7-2.2,1
			c-0.2,0.1-0.4,0.2-0.6,0.3c-0.5,0.3-1.1,0.6-1.6,0.9c-0.2,0.1-0.4,0.2-0.6,0.4c-0.7,0.4-1.4,0.9-2,1.4c-4.5,3.2-5.5,9.4-2.3,13.8
			c3,4.2,8.6,5.4,13,2.9c0.3-0.2,0.5-0.4,0.8-0.6c3.5-2.5,7.5-3.7,11.5-3.6c0,0,0.1,0,0.1,0c0.5,0,1.1,0,1.6,0.1c0.1,0,0.1,0,0.2,0
			c0.5,0.1,1.1,0.1,1.6,0.2c0.2,0,0.4,0.1,0.6,0.1c0.3,0.1,0.7,0.1,1,0.2c0.2,0.1,0.5,0.1,0.7,0.2c0.3,0.1,0.6,0.2,1,0.3
			c0.4,0.1,0.8,0.3,1.2,0.5c3.2,1.4,6.1,3.6,8.2,6.6c2.1,3,3.3,6.3,3.6,9.7c0,0,0,0,0,0l0.1,0c0.2-2.8,1.6-5.6,4.1-7.3
			c4.5-3.2,10.7-2.1,13.8,2.3c0.7,1,1.2,2,1.5,3.1l0.2,0c-0.6-6.7-3-13.4-7.2-19.2C382.5,181.2,376.9,176.8,370.8,174z"/>
	</g>
</g>
<g>
	<path fill="#ED1C24" d="M212.9,226.4c0-5.5-4.4-9.9-9.9-9.9c-3.1,0-5.8,1.4-7.6,3.6l-0.1-0.1c0,0,0,0,0,0c-0.4,0.7-0.9,1.4-1.4,2.1
		c0,0,0,0,0,0.1c-0.2,0.3-0.5,0.6-0.8,0.9c0,0-0.1,0.1-0.1,0.1c-0.5,0.5-1,1-1.5,1.5c-0.1,0.1-0.2,0.2-0.3,0.3
		c-0.3,0.2-0.5,0.4-0.8,0.7c-0.2,0.1-0.3,0.3-0.5,0.4c-0.4,0.3-0.8,0.5-1.2,0.8c-0.2,0.2-0.5,0.3-0.8,0.5c-0.2,0.1-0.4,0.2-0.7,0.4
		c-0.3,0.2-0.7,0.4-1.1,0.5c-0.2,0.1-0.4,0.2-0.6,0.3c-0.4,0.2-0.8,0.3-1.3,0.5c-0.2,0.1-0.4,0.1-0.5,0.2c-0.5,0.2-1,0.3-1.6,0.4
		c-0.1,0-0.1,0-0.2,0c-0.5,0.1-1.1,0.2-1.7,0.3c-0.2,0-0.3,0-0.5,0c-0.6,0.1-1.2,0.1-1.8,0.1c-7.3,0-13.7-4-17.1-9.9c0,0,0,0,0,0
		l-0.1,0.1c1.4,1.7,2.3,3.9,2.3,6.3c0,5.5-4.4,9.9-9.9,9.9c-4.3,0-7.9-2.7-9.3-6.5l-0.2,0.1c6.9,11.9,19.7,19.9,34.3,19.9
		c0.8,0,1.6,0,2.5-0.1c0.2,0,0.5,0,0.7-0.1c0.6,0,1.2-0.1,1.8-0.2c0.2,0,0.5-0.1,0.7-0.1c0.8-0.1,1.6-0.2,2.4-0.4c0,0,0,0,0,0
		c0.8-0.2,1.5-0.4,2.3-0.6c0.2-0.1,0.4-0.1,0.6-0.2c0.6-0.2,1.2-0.4,1.8-0.6c0.2-0.1,0.3-0.1,0.5-0.2c1.5-0.5,3-1.2,4.4-1.9
		c0.1-0.1,0.3-0.1,0.4-0.2c0.6-0.3,1.2-0.7,1.9-1c0.1-0.1,0.2-0.1,0.3-0.1c1.4-0.8,2.8-1.8,4.1-2.8c0.1,0,0.1-0.1,0.2-0.1
		c0.6-0.5,1.3-1,1.9-1.5c0,0,0,0,0,0c1.3-1.1,2.5-2.3,3.6-3.6c0,0,0,0,0,0c1.7-1.9,3.2-4,4.4-6.2c0,0,0,0,0,0l-0.2-0.1
		C212.7,228.8,212.9,227.6,212.9,226.4z"/>
	<path fill="#FF1A1A" d="M168.2,180.3c0-5.5,4.4-9.9,9.9-9.9c-14.7,0-27.5,8-34.3,19.9l0,0c0,0,0,0.1,0,0.1
		c-0.3,0.5-0.5,0.9-0.8,1.4c-0.1,0.1-0.1,0.3-0.2,0.4c-0.2,0.4-0.4,0.8-0.6,1.2c-0.1,0.2-0.1,0.3-0.2,0.5c-0.2,0.4-0.4,0.8-0.5,1.2
		c-0.1,0.1-0.1,0.3-0.2,0.4c-0.2,0.5-0.4,1.1-0.6,1.7c0,0.1-0.1,0.2-0.1,0.2c-0.2,0.7-0.5,1.4-0.7,2.1c0,0.1-0.1,0.2-0.1,0.3
		c-0.4,1.6-0.7,3.1-1,4.8c0,0.2-0.1,0.4-0.1,0.6c-0.1,0.6-0.1,1.2-0.2,1.8c0,0.2,0,0.5-0.1,0.7c0,0.8-0.1,1.6-0.1,2.4s0,1.6,0.1,2.4
		c0,0.2,0,0.5,0.1,0.7c0,0.6,0.1,1.2,0.2,1.8c0,0.2,0.1,0.4,0.1,0.6c0.2,1.6,0.6,3.2,1,4.8c0,0.1,0.1,0.2,0.1,0.3
		c0.2,0.7,0.4,1.4,0.7,2.1c0,0.1,0.1,0.2,0.1,0.2c0.8,2.4,1.9,4.7,3.1,6.8c0,0,0,0,0,0l0.2-0.1c1.4,3.8,5,6.5,9.3,6.5
		c5.5,0,9.9-4.4,9.9-9.9c0-2.4-0.9-4.6-2.3-6.3l0.1-0.1c0,0,0,0,0,0c-0.2-0.4-0.4-0.7-0.6-1.1c0,0,0-0.1-0.1-0.1
		c-0.3-0.6-0.6-1.2-0.8-1.9c-0.1-0.2-0.1-0.4-0.2-0.5c-0.1-0.3-0.2-0.6-0.3-0.9c-0.1-0.3-0.2-0.7-0.3-1.1c-0.1-0.2-0.1-0.5-0.2-0.7
		c-0.1-0.5-0.2-0.9-0.2-1.4c0-0.2,0-0.3-0.1-0.5c-0.1-0.6-0.1-1.2-0.1-1.8c0-0.6,0-1.2,0.1-1.8c0-0.2,0-0.3,0-0.5
		c0.1-0.5,0.1-1,0.2-1.6c0-0.2,0.1-0.4,0.1-0.5c0.1-0.4,0.2-0.7,0.3-1.1c0.1-0.3,0.2-0.5,0.2-0.8c0.1-0.3,0.2-0.5,0.3-0.8
		c0.2-0.5,0.4-1,0.6-1.4c0.1-0.1,0.1-0.3,0.2-0.4c0.2-0.3,0.3-0.6,0.5-1c3.3-5.7,9.3-9.6,16.2-10
		C172.1,189.7,168.2,185.5,168.2,180.3z"/>
	<path fill="#D10514" d="M212.5,190.3L212.5,190.3c0-0.1-0.1-0.1-0.1-0.2c-0.2-0.4-0.4-0.7-0.7-1.1c-0.1-0.2-0.2-0.3-0.3-0.5
		c-0.2-0.4-0.5-0.7-0.7-1.1c-0.1-0.2-0.2-0.3-0.3-0.5c-0.3-0.4-0.5-0.7-0.8-1.1c-0.1-0.1-0.2-0.3-0.3-0.4c-0.4-0.5-0.8-1-1.2-1.4
		c0,0,0,0,0,0c-1.1-1.3-2.3-2.5-3.6-3.6c0,0,0,0,0,0c-0.6-0.5-1.2-1-1.9-1.5c-0.1,0-0.1-0.1-0.2-0.1c-1.3-1-2.7-1.9-4.1-2.8
		c-0.1-0.1-0.2-0.1-0.3-0.1c-0.6-0.4-1.2-0.7-1.9-1c-0.1-0.1-0.3-0.1-0.4-0.2c-1.4-0.7-2.9-1.3-4.4-1.9c-0.2-0.1-0.3-0.1-0.5-0.2
		c-0.6-0.2-1.2-0.4-1.8-0.6c-0.2-0.1-0.4-0.1-0.6-0.2c-0.8-0.2-1.5-0.4-2.3-0.6c0,0,0,0,0,0c-0.8-0.2-1.6-0.3-2.4-0.4
		c-0.2,0-0.4-0.1-0.7-0.1c-0.6-0.1-1.2-0.1-1.8-0.2c-0.2,0-0.5,0-0.7-0.1c-0.8,0-1.6-0.1-2.5-0.1c-5.5,0-9.9,4.4-9.9,9.9
		c0,5.1,3.9,9.4,8.9,9.9c0.3,0,0.7-0.1,1-0.1c4.3,0,8.3,1.4,11.5,3.7c0,0,0.1,0.1,0.1,0.1c0.4,0.3,0.9,0.7,1.3,1
		c0.1,0,0.1,0.1,0.2,0.1c0.4,0.4,0.8,0.7,1.2,1.1c0.1,0.1,0.3,0.3,0.4,0.4c0.2,0.2,0.4,0.5,0.7,0.8c0.2,0.2,0.3,0.4,0.5,0.6
		c0.2,0.3,0.4,0.5,0.6,0.8c0.2,0.3,0.5,0.7,0.7,1.1c1.8,3,2.9,6.5,2.9,10.2c0,3.6-1,7-2.7,10c0,0,0,0,0,0l0.1,0.1
		c1.8-2.2,4.6-3.6,7.6-3.6c5.5,0,9.9,4.4,9.9,9.9c0,1.2-0.2,2.4-0.6,3.4l0.2,0.1c3.4-5.8,5.3-12.6,5.3-19.8
		C217.8,202.9,215.8,196.1,212.5,190.3z"/>
</g>
</svg>
