<?xml version="1.0" encoding="UTF-8" standalone="no"?>
<svg
   xmlns:dc="http://purl.org/dc/elements/1.1/"
   xmlns:cc="http://creativecommons.org/ns#"
   xmlns:rdf="http://www.w3.org/1999/02/22-rdf-syntax-ns#"
   xmlns:svg="http://www.w3.org/2000/svg"
   xmlns="http://www.w3.org/2000/svg"
   xmlns:sodipodi="http://sodipodi.sourceforge.net/DTD/sodipodi-0.dtd"
   xmlns:inkscape="http://www.inkscape.org/namespaces/inkscape"
   width="105mm"
   height="28mm"
   viewBox="0 0 105 28"
   version="1.1"
   id="svg8"
   inkscape:version="1.0.2 (1.0.2+r75+1)"
   sodipodi:docname="logo_app_orbita_custom_size.svg">
  <defs
     id="defs2" />
  <sodipodi:namedview
     id="base"
     pagecolor="#ffffff"
     bordercolor="#666666"
     borderopacity="1.0"
     inkscape:pageopacity="0.0"
     inkscape:pageshadow="2"
     inkscape:zoom="3.959798"
     inkscape:cx="195.62072"
     inkscape:cy="104.01867"
     inkscape:document-units="px"
     inkscape:current-layer="layer1"
     inkscape:document-rotation="0"
     showgrid="false"
     inkscape:window-width="1920"
     inkscape:window-height="1023"
     inkscape:window-x="312"
     inkscape:window-y="389"
     inkscape:window-maximized="0" />
  <metadata
     id="metadata5">
    <rdf:RDF>
      <cc:Work
         rdf:about="">
        <dc:format>image/svg+xml</dc:format>
        <dc:type
           rdf:resource="http://purl.org/dc/dcmitype/StillImage" />
        <dc:title></dc:title>
      </cc:Work>
    </rdf:RDF>
  </metadata>
  <g
     inkscape:label="Слой 1"
     inkscape:groupmode="layer"
     id="layer1">
    <g
       id="g107"
       transform="matrix(0.26458333,0,0,0.26458333,7.8092755e-6,-38.752072)">
      <g
         id="g16">
	<path
   fill="#d10514"
   d="m 178.1,170.4 c 0,0 -0.1,0 0,0 l -0.1,19.8 c 0,0 0.1,0 0.1,0 10.9,0 19.8,8.9 19.8,19.8 0,3.4 -0.9,6.6 -2.4,9.4 l 17.4,9.6 c 3.1,-5.7 4.9,-12.2 4.9,-19.1 0,-21.7 -17.8,-39.5 -39.7,-39.5 z"
   id="path10" />

	<path
   fill="#ed1c24"
   d="m 178.1,230 c -7.2,0 -13.5,-3.9 -17,-9.6 l -17.1,10 c 6.9,11.6 19.6,19.4 34.1,19.4 15,0 28,-8.3 34.8,-20.6 l -17.4,-9.6 c -3.3,6.1 -9.9,10.4 -17.4,10.4 z"
   id="path12" />

	<path
   fill="#ff1a1a"
   d="m 158.3,210.1 c 0,-10.9 8.9,-19.8 19.8,-19.8 v -19.8 c -21.8,0 -39.6,17.8 -39.6,39.7 0,7.4 2,14.4 5.6,20.3 l 17.1,-10.1 c -1.9,-3.1 -2.9,-6.6 -2.9,-10.3 z"
   id="path14" />

</g>
      <g
         id="g24">
	<path
   fill="#58595b"
   d="m 42.1,170.4 c 0,0 -0.1,0 0,0 L 42,190.3 c 0,0 0.1,0 0.1,0 10.9,0 19.8,8.9 19.8,19.8 0,3.4 -0.9,6.6 -2.4,9.4 l 17.4,9.6 C 80,223.4 81.8,216.9 81.8,210 81.8,188.2 64,170.4 42.1,170.4 Z"
   id="path18" />

	<path
   fill="#1e1815"
   d="m 42.1,230 c -7.2,0 -13.5,-3.9 -17,-9.6 L 8,230.4 c 6.9,11.6 19.6,19.4 34.1,19.4 15,0 28,-8.3 34.8,-20.6 L 59.5,219.6 C 56.2,225.7 49.6,230 42.1,230 Z"
   id="path20" />

	<path
   fill="#414042"
   d="m 22.3,210.1 c 0,-10.9 8.9,-19.8 19.8,-19.8 v -19.8 c -21.8,0 -39.6,17.8 -39.6,39.7 0,7.4 2,14.4 5.6,20.3 l 17.1,-10.1 c -1.9,-3.1 -2.9,-6.6 -2.9,-10.3 z"
   id="path22" />

</g>
      <g
         id="g32">
	<path
   fill="#58595b"
   d="m 354.3,170.4 c 0,0 0,0 0,0 l -0.1,19.8 c 0,0 0.1,0 0.1,0 10.9,0 19.8,8.9 19.8,19.8 0,3.4 -0.9,6.6 -2.4,9.4 l 17.4,9.6 c 3.1,-5.7 4.9,-12.2 4.9,-19.1 0,-21.7 -17.8,-39.5 -39.7,-39.5 z"
   id="path26" />

	<path
   fill="#1e1815"
   d="m 354.3,229.9 c -7.2,0 -13.5,-3.9 -17,-9.6 l -17.1,10.1 c 6.9,11.6 19.6,19.4 34.1,19.4 15,0 28,-8.3 34.8,-20.6 l -17.4,-9.6 c -3.3,6.1 -9.9,10.3 -17.4,10.3 z"
   id="path28" />

	<path
   fill="#414042"
   d="m 334.5,210.1 c 0,-10.9 8.9,-19.8 19.8,-19.8 v -19.8 c -21.8,0 -39.6,17.8 -39.6,39.7 0,7.4 2,14.4 5.6,20.3 l 17.1,-10.1 c -1.8,-3.1 -2.9,-6.6 -2.9,-10.3 z"
   id="path30" />

</g>
      <path
         fill="#ed1c24"
         d="m 88.4,210.1 v 39.7 h 19.8 v -39.7 c 0,-10.9 8.9,-19.9 19.8,-19.9 v -19.7 c -21.8,0 -39.6,17.8 -39.6,39.6 z"
         id="path34" />
      <rect
         x="229.39999"
         y="170.39999"
         fill="#1e1815"
         width="19.799999"
         height="79.400002"
         id="rect36" />
      <rect
         x="138.39999"
         y="150.2"
         fill="#ed1c24"
         width="19.799999"
         height="59.5"
         id="rect38" />
      <polygon
         fill="#1e1815"
         points="298,190.3 312.4,190.3 312.4,170.4 298,170.4 298,150.6 278.2,150.6 278.2,170.4 263.4,170.4 263.4,190.3 278.2,190.3 278.2,249.8 298,249.8 "
         id="polygon40" />
      <g
         id="g48">
	<path
   fill="#1e1815"
   d="m 76.9,226.4 c 0,-5.5 -4.4,-9.9 -9.9,-9.9 -3.1,0 -5.8,1.4 -7.6,3.6 L 59.3,220 c 0,0 0,0 0,0 -0.4,0.7 -0.9,1.4 -1.4,2.1 0,0 0,0 0,0.1 -0.2,0.3 -0.5,0.6 -0.8,0.9 0,0 -0.1,0.1 -0.1,0.1 -0.5,0.5 -1,1 -1.5,1.5 -0.1,0.1 -0.2,0.2 -0.3,0.3 -0.3,0.2 -0.5,0.4 -0.8,0.7 -0.2,0.1 -0.3,0.3 -0.5,0.4 -0.4,0.3 -0.8,0.5 -1.2,0.8 -0.2,0.2 -0.5,0.3 -0.8,0.5 -0.2,0.1 -0.4,0.2 -0.7,0.4 -0.3,0.2 -0.7,0.4 -1.1,0.5 -0.2,0.1 -0.4,0.2 -0.6,0.3 -0.4,0.2 -0.8,0.3 -1.3,0.5 -0.2,0.1 -0.4,0.1 -0.5,0.2 -0.5,0.2 -1,0.3 -1.6,0.4 -0.1,0 -0.1,0 -0.2,0 -0.5,0.1 -1.1,0.2 -1.7,0.3 -0.2,0 -0.3,0 -0.5,0 -0.6,0.1 -1.2,0.1 -1.8,0.1 -7.3,0 -13.7,-4 -17.1,-9.9 0,0 0,0 0,0 l -0.1,0.1 c 1.4,1.7 2.3,3.9 2.3,6.3 0,5.5 -4.4,9.9 -9.9,9.9 -4.3,0 -7.9,-2.7 -9.3,-6.5 l -0.2,0.1 c 6.9,11.9 19.7,19.9 34.3,19.9 0.8,0 1.6,0 2.5,-0.1 0.2,0 0.5,0 0.7,-0.1 0.6,0 1.2,-0.1 1.8,-0.2 0.2,0 0.5,-0.1 0.7,-0.1 0.8,-0.1 1.6,-0.2 2.4,-0.4 0,0 0,0 0,0 0.8,-0.2 1.5,-0.4 2.3,-0.6 0.2,-0.1 0.4,-0.1 0.6,-0.2 0.6,-0.2 1.2,-0.4 1.8,-0.6 0.2,-0.1 0.3,-0.1 0.5,-0.2 1.5,-0.5 3,-1.2 4.4,-1.9 0.1,-0.1 0.3,-0.1 0.4,-0.2 0.6,-0.3 1.2,-0.7 1.9,-1 0.1,-0.1 0.2,-0.1 0.3,-0.1 1.4,-0.8 2.8,-1.8 4.1,-2.8 0.1,0 0.1,-0.1 0.2,-0.1 0.6,-0.5 1.3,-1 1.9,-1.5 0,0 0,0 0,0 1.3,-1.1 2.5,-2.3 3.6,-3.6 0,0 0,0 0,0 1.7,-1.9 3.2,-4 4.4,-6.2 0,0 0,0 0,0 L 76.2,230 c 0.5,-1.2 0.7,-2.4 0.7,-3.6 z"
   id="path42" />

	<path
   fill="#414042"
   d="m 32.2,180.3 c 0,-5.5 4.4,-9.9 9.9,-9.9 -14.7,0 -27.5,8 -34.3,19.9 v 0 c 0,0 0,0.1 0,0.1 -0.3,0.5 -0.5,0.9 -0.8,1.4 -0.1,0.1 -0.1,0.3 -0.2,0.4 -0.2,0.4 -0.4,0.8 -0.6,1.2 -0.1,0.2 -0.1,0.3 -0.2,0.5 -0.2,0.4 -0.4,0.8 -0.5,1.2 -0.1,0.1 -0.1,0.3 -0.2,0.4 -0.2,0.5 -0.4,1.1 -0.6,1.7 0,0.1 -0.1,0.2 -0.1,0.2 -0.2,0.7 -0.5,1.4 -0.7,2.1 0,0.1 -0.1,0.2 -0.1,0.3 -0.4,1.6 -0.7,3.1 -1,4.8 0,0.2 -0.1,0.4 -0.1,0.6 -0.1,0.6 -0.1,1.2 -0.2,1.8 0,0.2 0,0.5 -0.1,0.7 0,0.8 -0.1,1.6 -0.1,2.4 0,0.8 0,1.6 0.1,2.4 0,0.2 0,0.5 0.1,0.7 0,0.6 0.1,1.2 0.2,1.8 0,0.2 0.1,0.4 0.1,0.6 0.2,1.6 0.6,3.2 1,4.8 0,0.1 0.1,0.2 0.1,0.3 0.2,0.7 0.4,1.4 0.7,2.1 0,0.1 0.1,0.2 0.1,0.2 0.8,2.4 1.9,4.7 3.1,6.8 0,0 0,0 0,0 L 8,229.7 c 1.4,3.8 5,6.5 9.3,6.5 5.5,0 9.9,-4.4 9.9,-9.9 0,-2.4 -0.9,-4.6 -2.3,-6.3 H 25 c 0,0 0,0 0,0 -0.2,-0.4 -0.4,-0.7 -0.6,-1.1 0,0 0,-0.1 -0.1,-0.1 -0.3,-0.6 -0.6,-1.2 -0.8,-1.9 -0.1,-0.2 -0.1,-0.4 -0.2,-0.5 -0.1,-0.3 -0.2,-0.6 -0.3,-0.9 -0.1,-0.3 -0.2,-0.7 -0.3,-1.1 -0.1,-0.2 -0.1,-0.5 -0.2,-0.7 -0.1,-0.5 -0.2,-0.9 -0.2,-1.4 0,-0.2 0,-0.3 -0.1,-0.5 -0.1,-0.6 -0.1,-1.2 -0.1,-1.8 0,-0.6 0,-1.2 0.1,-1.8 0,-0.2 0,-0.3 0,-0.5 0.1,-0.5 0.1,-1 0.2,-1.6 0,-0.2 0.1,-0.4 0.1,-0.5 0.1,-0.4 0.2,-0.7 0.3,-1.1 0.1,-0.3 0.2,-0.5 0.2,-0.8 0.1,-0.3 0.2,-0.5 0.3,-0.8 0.2,-0.5 0.4,-1 0.6,-1.4 0.1,-0.1 0.1,-0.3 0.2,-0.4 0.2,-0.3 0.3,-0.6 0.5,-1 3.3,-5.7 9.3,-9.6 16.2,-10 -4.7,-0.4 -8.6,-4.6 -8.6,-9.8 z"
   id="path44" />

	<path
   fill="#58595b"
   d="m 76.5,190.3 v 0 c 0,-0.1 -0.1,-0.1 -0.1,-0.2 -0.2,-0.4 -0.4,-0.7 -0.7,-1.1 -0.1,-0.2 -0.2,-0.3 -0.3,-0.5 -0.2,-0.4 -0.5,-0.7 -0.7,-1.1 -0.1,-0.2 -0.2,-0.3 -0.3,-0.5 -0.3,-0.4 -0.5,-0.7 -0.8,-1.1 -0.1,-0.1 -0.2,-0.3 -0.3,-0.4 -0.4,-0.5 -0.8,-1 -1.2,-1.4 0,0 0,0 0,0 -1.1,-1.3 -2.3,-2.5 -3.6,-3.6 0,0 0,0 0,0 -0.6,-0.5 -1.2,-1 -1.9,-1.5 -0.1,0 -0.1,-0.1 -0.2,-0.1 -1.3,-1 -2.7,-1.9 -4.1,-2.8 -0.1,-0.1 -0.2,-0.1 -0.3,-0.1 -0.6,-0.4 -1.2,-0.7 -1.9,-1 -0.1,-0.1 -0.3,-0.1 -0.4,-0.2 -1.4,-0.7 -2.9,-1.3 -4.4,-1.9 -0.2,-0.1 -0.3,-0.1 -0.5,-0.2 -0.6,-0.2 -1.2,-0.4 -1.8,-0.6 -0.2,-0.1 -0.4,-0.1 -0.6,-0.2 -0.8,-0.2 -1.5,-0.4 -2.3,-0.6 0,0 0,0 0,0 -0.8,-0.2 -1.6,-0.3 -2.4,-0.4 -0.2,0 -0.4,-0.1 -0.7,-0.1 -0.6,-0.1 -1.2,-0.1 -1.8,-0.2 -0.2,0 -0.5,0 -0.7,-0.1 -0.8,0 -1.6,-0.1 -2.5,-0.1 -5.5,0 -9.9,4.4 -9.9,9.9 0,5.1 3.9,9.4 8.9,9.9 0.3,0 0.7,-0.1 1,-0.1 4.3,0 8.3,1.4 11.5,3.7 0,0 0.1,0.1 0.1,0.1 0.4,0.3 0.9,0.7 1.3,1 0.1,0 0.1,0.1 0.2,0.1 0.4,0.4 0.8,0.7 1.2,1.1 0.1,0.1 0.3,0.3 0.4,0.4 0.2,0.2 0.4,0.5 0.7,0.8 0.2,0.2 0.3,0.4 0.5,0.6 0.2,0.3 0.4,0.5 0.6,0.8 0.2,0.3 0.5,0.7 0.7,1.1 1.8,3 2.9,6.5 2.9,10.2 0,3.6 -1,7 -2.7,10 0,0 0,0 0,0 l 0.1,0.1 c 1.8,-2.2 4.6,-3.6 7.6,-3.6 5.5,0 9.9,4.4 9.9,9.9 0,1.2 -0.2,2.4 -0.6,3.4 l 0.2,0.1 C 80,224 81.9,217.2 81.9,210 81.8,202.9 79.8,196.1 76.5,190.3 Z"
   id="path46" />

</g>
      <g
         id="g60">
	<rect
   x="374.20001"
   y="210.10001"
   fill="#1e1815"
   width="19.799999"
   height="39.700001"
   id="rect50" />

	<g
   id="g58">
		<path
   fill="#1e1815"
   d="m 392.1,203.2 c -3.2,-4.5 -9.4,-5.5 -13.8,-2.3 -2.5,1.8 -3.9,4.5 -4.1,7.3 h -0.1 c 0,0 0,0 0,0 0.1,0.8 0.1,1.7 0.1,2.5 0,0 0,0 0,0.1 0,0.4 0,0.8 -0.1,1.2 0,0.1 0,0.1 0,0.2 -0.1,0.7 -0.2,1.4 -0.3,2.1 0,0.1 -0.1,0.3 -0.1,0.4 -0.1,0.3 -0.2,0.7 -0.3,1 -0.1,0.2 -0.1,0.4 -0.2,0.6 -0.1,0.4 -0.3,0.9 -0.5,1.3 -0.1,0.3 -0.2,0.5 -0.3,0.8 -0.1,0.2 -0.2,0.5 -0.3,0.7 -0.2,0.4 -0.4,0.7 -0.6,1 -0.1,0.2 -0.2,0.4 -0.3,0.6 -0.2,0.4 -0.5,0.8 -0.8,1.1 -0.1,0.1 -0.2,0.3 -0.3,0.4 -0.3,0.4 -0.7,0.8 -1,1.2 0,0 -0.1,0.1 -0.1,0.1 -0.4,0.4 -0.8,0.8 -1.2,1.2 -0.1,0.1 -0.2,0.2 -0.3,0.3 -0.5,0.4 -0.9,0.8 -1.4,1.1 -5.9,4.2 -13.4,4.7 -19.7,1.9 0,0 0,0 0,0 l -0.1,0.1 c 2.2,0.6 4.2,1.9 5.6,3.8 3.2,4.5 2.1,10.7 -2.3,13.8 -3.5,2.5 -8,2.4 -11.3,0.1 l -0.1,0.2 c 12.5,5.7 27.6,4.7 39.5,-3.8 0.7,-0.5 1.3,-1 2,-1.5 0.2,-0.1 0.4,-0.3 0.5,-0.5 0.5,-0.4 0.9,-0.8 1.4,-1.2 0.2,-0.2 0.3,-0.3 0.5,-0.5 0.6,-0.6 1.2,-1.1 1.7,-1.7 0,0 0,0 0,0 0.5,-0.6 1.1,-1.2 1.6,-1.8 0.1,-0.2 0.3,-0.3 0.4,-0.5 0.4,-0.5 0.8,-1 1.1,-1.5 0.1,-0.1 0.2,-0.3 0.3,-0.4 0.9,-1.3 1.8,-2.7 2.5,-4.1 0.1,-0.1 0.1,-0.3 0.2,-0.4 0.3,-0.6 0.6,-1.3 0.9,-1.9 0,-0.1 0.1,-0.2 0.1,-0.3 0.7,-1.5 1.2,-3 1.7,-4.6 0,-0.1 0,-0.1 0.1,-0.2 0.2,-0.8 0.4,-1.5 0.6,-2.3 0,0 0,0 0,0 0.4,-1.6 0.7,-3.3 0.8,-5 0,0 0,0 0,0 0.2,-2.5 0.3,-5.1 0,-7.6 0,0 0,0 0,0 h -0.2 c -0.6,-1 -1.1,-2 -1.8,-3 z"
   id="path52" />

		<path
   fill="#414042"
   d="m 329,191.6 c -3.2,-4.5 -2.1,-10.7 2.3,-13.8 -11.9,8.5 -17.7,22.5 -16.5,36.1 v 0 c 0,0 0,0.1 0,0.1 0.1,0.5 0.1,1.1 0.2,1.6 0,0.2 0,0.3 0.1,0.5 0.1,0.4 0.1,0.8 0.2,1.3 0,0.2 0.1,0.3 0.1,0.5 0.1,0.4 0.2,0.9 0.3,1.3 0,0.1 0.1,0.3 0.1,0.4 0.1,0.6 0.3,1.1 0.5,1.7 0,0.1 0,0.2 0.1,0.2 0.2,0.7 0.4,1.4 0.7,2.1 0,0.1 0.1,0.2 0.1,0.3 0.6,1.5 1.2,3 2,4.5 0.1,0.2 0.2,0.4 0.3,0.6 0.3,0.5 0.6,1.1 0.9,1.6 0.1,0.2 0.2,0.4 0.4,0.6 0.4,0.7 0.9,1.4 1.3,2 0.5,0.7 1,1.3 1.5,1.9 0.1,0.2 0.3,0.4 0.4,0.5 0.4,0.5 0.8,0.9 1.2,1.4 0.1,0.2 0.3,0.3 0.4,0.5 1.1,1.2 2.3,2.3 3.6,3.3 0.1,0.1 0.2,0.1 0.2,0.2 0.6,0.5 1.2,0.9 1.8,1.4 0.1,0 0.1,0.1 0.2,0.1 2.1,1.5 4.3,2.7 6.5,3.8 0,0 0,0 0,0 l 0.1,-0.2 c 3.3,2.3 7.9,2.4 11.3,-0.1 4.5,-3.2 5.5,-9.4 2.3,-13.8 -1.4,-2 -3.4,-3.3 -5.6,-3.8 l 0.1,-0.1 c 0,0 0,0 0,0 -0.4,-0.2 -0.8,-0.4 -1.1,-0.5 0,0 -0.1,0 -0.1,-0.1 -0.6,-0.3 -1.2,-0.7 -1.8,-1.1 -0.2,-0.1 -0.3,-0.2 -0.5,-0.3 -0.2,-0.2 -0.5,-0.4 -0.7,-0.5 -0.3,-0.2 -0.6,-0.5 -0.8,-0.7 -0.2,-0.2 -0.4,-0.3 -0.6,-0.5 -0.3,-0.3 -0.7,-0.7 -1,-1 -0.1,-0.1 -0.2,-0.3 -0.3,-0.4 -0.4,-0.4 -0.8,-0.9 -1.1,-1.4 -0.3,-0.5 -0.7,-1 -1,-1.5 -0.1,-0.1 -0.2,-0.3 -0.2,-0.4 -0.3,-0.5 -0.5,-0.9 -0.7,-1.4 -0.1,-0.2 -0.1,-0.3 -0.2,-0.5 -0.1,-0.4 -0.3,-0.7 -0.4,-1.1 -0.1,-0.3 -0.2,-0.5 -0.3,-0.8 -0.1,-0.3 -0.1,-0.5 -0.2,-0.8 -0.1,-0.5 -0.2,-1 -0.3,-1.5 0,-0.2 -0.1,-0.3 -0.1,-0.5 -0.1,-0.4 -0.1,-0.7 -0.1,-1.1 -0.6,-6.5 2,-13.2 7.4,-17.5 -4.4,2.3 -10,1.1 -13,-3.1 z"
   id="path54" />

		<path
   fill="#58595b"
   d="m 370.8,174 v 0 c -0.1,0 -0.1,-0.1 -0.2,-0.1 -0.4,-0.2 -0.8,-0.3 -1.2,-0.5 -0.2,-0.1 -0.4,-0.2 -0.5,-0.2 -0.4,-0.2 -0.8,-0.3 -1.2,-0.4 -0.2,-0.1 -0.4,-0.1 -0.5,-0.2 -0.4,-0.1 -0.9,-0.3 -1.3,-0.4 -0.2,0 -0.3,-0.1 -0.5,-0.1 -0.6,-0.2 -1.2,-0.3 -1.8,-0.5 0,0 0,0 0,0 -1.6,-0.4 -3.3,-0.7 -5,-0.9 0,0 0,0 0,0 -0.8,-0.1 -1.6,-0.1 -2.4,-0.2 -0.1,0 -0.2,0 -0.2,0 -1.6,-0.1 -3.3,0 -4.9,0.1 -0.1,0 -0.2,0 -0.3,0 -0.7,0.1 -1.4,0.1 -2.1,0.2 -0.1,0 -0.3,0 -0.4,0.1 -1.6,0.2 -3.1,0.6 -4.7,1 -0.2,0 -0.3,0.1 -0.5,0.2 -0.6,0.2 -1.2,0.4 -1.8,0.6 -0.2,0.1 -0.4,0.1 -0.6,0.2 -0.7,0.3 -1.5,0.6 -2.2,0.9 0,0 0,0 0,0 -0.7,0.3 -1.5,0.7 -2.2,1 -0.2,0.1 -0.4,0.2 -0.6,0.3 -0.5,0.3 -1.1,0.6 -1.6,0.9 -0.2,0.1 -0.4,0.2 -0.6,0.4 -0.7,0.4 -1.4,0.9 -2,1.4 -4.5,3.2 -5.5,9.4 -2.3,13.8 3,4.2 8.6,5.4 13,2.9 0.3,-0.2 0.5,-0.4 0.8,-0.6 3.5,-2.5 7.5,-3.7 11.5,-3.6 0,0 0.1,0 0.1,0 0.5,0 1.1,0 1.6,0.1 0.1,0 0.1,0 0.2,0 0.5,0.1 1.1,0.1 1.6,0.2 0.2,0 0.4,0.1 0.6,0.1 0.3,0.1 0.7,0.1 1,0.2 0.2,0.1 0.5,0.1 0.7,0.2 0.3,0.1 0.6,0.2 1,0.3 0.4,0.1 0.8,0.3 1.2,0.5 3.2,1.4 6.1,3.6 8.2,6.6 2.1,3 3.3,6.3 3.6,9.7 0,0 0,0 0,0 h 0.1 c 0.2,-2.8 1.6,-5.6 4.1,-7.3 4.5,-3.2 10.7,-2.1 13.8,2.3 0.7,1 1.2,2 1.5,3.1 h 0.2 c -0.6,-6.7 -3,-13.4 -7.2,-19.2 -4.3,-5.9 -9.9,-10.3 -16,-13.1 z"
   id="path56" />

	</g>

</g>
      <g
         id="g68">
	<path
   fill="#ed1c24"
   d="m 212.9,226.4 c 0,-5.5 -4.4,-9.9 -9.9,-9.9 -3.1,0 -5.8,1.4 -7.6,3.6 l -0.1,-0.1 c 0,0 0,0 0,0 -0.4,0.7 -0.9,1.4 -1.4,2.1 0,0 0,0 0,0.1 -0.2,0.3 -0.5,0.6 -0.8,0.9 0,0 -0.1,0.1 -0.1,0.1 -0.5,0.5 -1,1 -1.5,1.5 -0.1,0.1 -0.2,0.2 -0.3,0.3 -0.3,0.2 -0.5,0.4 -0.8,0.7 -0.2,0.1 -0.3,0.3 -0.5,0.4 -0.4,0.3 -0.8,0.5 -1.2,0.8 -0.2,0.2 -0.5,0.3 -0.8,0.5 -0.2,0.1 -0.4,0.2 -0.7,0.4 -0.3,0.2 -0.7,0.4 -1.1,0.5 -0.2,0.1 -0.4,0.2 -0.6,0.3 -0.4,0.2 -0.8,0.3 -1.3,0.5 -0.2,0.1 -0.4,0.1 -0.5,0.2 -0.5,0.2 -1,0.3 -1.6,0.4 -0.1,0 -0.1,0 -0.2,0 -0.5,0.1 -1.1,0.2 -1.7,0.3 -0.2,0 -0.3,0 -0.5,0 -0.6,0.1 -1.2,0.1 -1.8,0.1 -7.3,0 -13.7,-4 -17.1,-9.9 0,0 0,0 0,0 l -0.1,0.1 c 1.4,1.7 2.3,3.9 2.3,6.3 0,5.5 -4.4,9.9 -9.9,9.9 -4.3,0 -7.9,-2.7 -9.3,-6.5 l -0.2,0.1 c 6.9,11.9 19.7,19.9 34.3,19.9 0.8,0 1.6,0 2.5,-0.1 0.2,0 0.5,0 0.7,-0.1 0.6,0 1.2,-0.1 1.8,-0.2 0.2,0 0.5,-0.1 0.7,-0.1 0.8,-0.1 1.6,-0.2 2.4,-0.4 0,0 0,0 0,0 0.8,-0.2 1.5,-0.4 2.3,-0.6 0.2,-0.1 0.4,-0.1 0.6,-0.2 0.6,-0.2 1.2,-0.4 1.8,-0.6 0.2,-0.1 0.3,-0.1 0.5,-0.2 1.5,-0.5 3,-1.2 4.4,-1.9 0.1,-0.1 0.3,-0.1 0.4,-0.2 0.6,-0.3 1.2,-0.7 1.9,-1 0.1,-0.1 0.2,-0.1 0.3,-0.1 1.4,-0.8 2.8,-1.8 4.1,-2.8 0.1,0 0.1,-0.1 0.2,-0.1 0.6,-0.5 1.3,-1 1.9,-1.5 0,0 0,0 0,0 1.3,-1.1 2.5,-2.3 3.6,-3.6 0,0 0,0 0,0 1.7,-1.9 3.2,-4 4.4,-6.2 0,0 0,0 0,0 l -0.2,-0.1 c 0.5,-1.2 0.7,-2.4 0.7,-3.6 z"
   id="path62" />

	<path
   fill="#ff1a1a"
   d="m 168.2,180.3 c 0,-5.5 4.4,-9.9 9.9,-9.9 -14.7,0 -27.5,8 -34.3,19.9 v 0 c 0,0 0,0.1 0,0.1 -0.3,0.5 -0.5,0.9 -0.8,1.4 -0.1,0.1 -0.1,0.3 -0.2,0.4 -0.2,0.4 -0.4,0.8 -0.6,1.2 -0.1,0.2 -0.1,0.3 -0.2,0.5 -0.2,0.4 -0.4,0.8 -0.5,1.2 -0.1,0.1 -0.1,0.3 -0.2,0.4 -0.2,0.5 -0.4,1.1 -0.6,1.7 0,0.1 -0.1,0.2 -0.1,0.2 -0.2,0.7 -0.5,1.4 -0.7,2.1 0,0.1 -0.1,0.2 -0.1,0.3 -0.4,1.6 -0.7,3.1 -1,4.8 0,0.2 -0.1,0.4 -0.1,0.6 -0.1,0.6 -0.1,1.2 -0.2,1.8 0,0.2 0,0.5 -0.1,0.7 0,0.8 -0.1,1.6 -0.1,2.4 0,0.8 0,1.6 0.1,2.4 0,0.2 0,0.5 0.1,0.7 0,0.6 0.1,1.2 0.2,1.8 0,0.2 0.1,0.4 0.1,0.6 0.2,1.6 0.6,3.2 1,4.8 0,0.1 0.1,0.2 0.1,0.3 0.2,0.7 0.4,1.4 0.7,2.1 0,0.1 0.1,0.2 0.1,0.2 0.8,2.4 1.9,4.7 3.1,6.8 0,0 0,0 0,0 l 0.2,-0.1 c 1.4,3.8 5,6.5 9.3,6.5 5.5,0 9.9,-4.4 9.9,-9.9 0,-2.4 -0.9,-4.6 -2.3,-6.3 l 0.1,-0.1 c 0,0 0,0 0,0 -0.2,-0.4 -0.4,-0.7 -0.6,-1.1 0,0 0,-0.1 -0.1,-0.1 -0.3,-0.6 -0.6,-1.2 -0.8,-1.9 -0.1,-0.2 -0.1,-0.4 -0.2,-0.5 -0.1,-0.3 -0.2,-0.6 -0.3,-0.9 -0.1,-0.3 -0.2,-0.7 -0.3,-1.1 -0.1,-0.2 -0.1,-0.5 -0.2,-0.7 -0.1,-0.5 -0.2,-0.9 -0.2,-1.4 0,-0.2 0,-0.3 -0.1,-0.5 -0.1,-0.6 -0.1,-1.2 -0.1,-1.8 0,-0.6 0,-1.2 0.1,-1.8 0,-0.2 0,-0.3 0,-0.5 0.1,-0.5 0.1,-1 0.2,-1.6 0,-0.2 0.1,-0.4 0.1,-0.5 0.1,-0.4 0.2,-0.7 0.3,-1.1 0.1,-0.3 0.2,-0.5 0.2,-0.8 0.1,-0.3 0.2,-0.5 0.3,-0.8 0.2,-0.5 0.4,-1 0.6,-1.4 0.1,-0.1 0.1,-0.3 0.2,-0.4 0.2,-0.3 0.3,-0.6 0.5,-1 3.3,-5.7 9.3,-9.6 16.2,-10 -4.7,-0.3 -8.6,-4.5 -8.6,-9.7 z"
   id="path64" />

	<path
   fill="#d10514"
   d="m 212.5,190.3 v 0 c 0,-0.1 -0.1,-0.1 -0.1,-0.2 -0.2,-0.4 -0.4,-0.7 -0.7,-1.1 -0.1,-0.2 -0.2,-0.3 -0.3,-0.5 -0.2,-0.4 -0.5,-0.7 -0.7,-1.1 -0.1,-0.2 -0.2,-0.3 -0.3,-0.5 -0.3,-0.4 -0.5,-0.7 -0.8,-1.1 -0.1,-0.1 -0.2,-0.3 -0.3,-0.4 -0.4,-0.5 -0.8,-1 -1.2,-1.4 0,0 0,0 0,0 -1.1,-1.3 -2.3,-2.5 -3.6,-3.6 0,0 0,0 0,0 -0.6,-0.5 -1.2,-1 -1.9,-1.5 -0.1,0 -0.1,-0.1 -0.2,-0.1 -1.3,-1 -2.7,-1.9 -4.1,-2.8 -0.1,-0.1 -0.2,-0.1 -0.3,-0.1 -0.6,-0.4 -1.2,-0.7 -1.9,-1 -0.1,-0.1 -0.3,-0.1 -0.4,-0.2 -1.4,-0.7 -2.9,-1.3 -4.4,-1.9 -0.2,-0.1 -0.3,-0.1 -0.5,-0.2 -0.6,-0.2 -1.2,-0.4 -1.8,-0.6 -0.2,-0.1 -0.4,-0.1 -0.6,-0.2 -0.8,-0.2 -1.5,-0.4 -2.3,-0.6 0,0 0,0 0,0 -0.8,-0.2 -1.6,-0.3 -2.4,-0.4 -0.2,0 -0.4,-0.1 -0.7,-0.1 -0.6,-0.1 -1.2,-0.1 -1.8,-0.2 -0.2,0 -0.5,0 -0.7,-0.1 -0.8,0 -1.6,-0.1 -2.5,-0.1 -5.5,0 -9.9,4.4 -9.9,9.9 0,5.1 3.9,9.4 8.9,9.9 0.3,0 0.7,-0.1 1,-0.1 4.3,0 8.3,1.4 11.5,3.7 0,0 0.1,0.1 0.1,0.1 0.4,0.3 0.9,0.7 1.3,1 0.1,0 0.1,0.1 0.2,0.1 0.4,0.4 0.8,0.7 1.2,1.1 0.1,0.1 0.3,0.3 0.4,0.4 0.2,0.2 0.4,0.5 0.7,0.8 0.2,0.2 0.3,0.4 0.5,0.6 0.2,0.3 0.4,0.5 0.6,0.8 0.2,0.3 0.5,0.7 0.7,1.1 1.8,3 2.9,6.5 2.9,10.2 0,3.6 -1,7 -2.7,10 0,0 0,0 0,0 l 0.1,0.1 c 1.8,-2.2 4.6,-3.6 7.6,-3.6 5.5,0 9.9,4.4 9.9,9.9 0,1.2 -0.2,2.4 -0.6,3.4 l 0.2,0.1 c 3.4,-5.8 5.3,-12.6 5.3,-19.8 -0.1,-7.1 -2.1,-13.9 -5.4,-19.7 z"
   id="path66" />

</g>
    </g>
  </g>
</svg>
