<?xml version="1.0" encoding="utf-8"?>
<!-- Generator: Adobe Illustrator 17.1.0, SVG Export Plug-In . SVG Version: 6.00 Build 0)  -->
<!DOCTYPE svg PUBLIC "-//W3C//DTD SVG 1.1//EN" "http://www.w3.org/Graphics/SVG/1.1/DTD/svg11.dtd">
<svg version="1.1" id="Layer_1" xmlns="http://www.w3.org/2000/svg" xmlns:xlink="http://www.w3.org/1999/xlink" x="0px" y="0px"
	 viewBox="0 0 107 26.5" enable-background="new 0 0 107 26.5" xml:space="preserve">
<path fill="#ED1C24" d="M38.1,7.4c0-3,0-3.9,0-6.9C38,0.1,38.2,0,38.5,0c1.3,0,2.6,0,3.9,0C42.8,0,43,0.1,43,0.5c0,2.9,0,3.6,0,6.5
	c0,0.4,0,0.4,0.4,0.2c3.8-1.9,7.5-1.8,10.9,0.7c3.5,2.5,4.9,6.1,4,10.4c-0.8,4.1-3.5,6.7-7.5,7.8c-5.8,1.5-11.8-2.5-12.6-8.4
	c-0.2-1.4-0.1-2.7-0.1-4.1C38.1,11.5,38.1,9.4,38.1,7.4z M48.2,21.4c2.9,0,5.3-2.3,5.3-5.3c0-2.9-2.4-5.2-5.4-5.2
	c-2.6-0.1-5.1,2.4-5.1,5.2C42.9,19,45.3,21.4,48.2,21.4z"/>
<path fill="#1E1815" d="M105.6,20.7c0,1.7,0,3.5,0,5.2c0,0.3-0.1,0.4-0.4,0.4c-1.3,0-2.7,0-4,0c-0.4,0-0.5-0.1-0.5-0.5
	c0-1,0-1-0.9-0.6c-6.3,3.2-13.7-0.9-14.6-8c-0.8-6.4,4.6-11.9,11-11.3c5.4,0.5,9.4,4.8,9.4,10.2C105.6,17.6,105.6,19.1,105.6,20.7z
	 M100.6,16c0-2.9-2.3-5.2-5.2-5.2c-2.9,0-5.3,2.4-5.3,5.3c0,2.9,2.3,5.3,5.2,5.3C98.2,21.4,100.6,19,100.6,16z"/>
<path fill="#1E1815" d="M74.8,18.4c0-2.5,0-4.9,0-7.4c0-0.3-0.1-0.4-0.4-0.4c-1.1,0-2.3,0-3.4,0c-0.3,0-0.4,0-0.4-0.4
	c0-1.4,0-2.7,0-4.1c0-0.3,0.1-0.4,0.4-0.3c1.1,0,2.2,0,3.3,0c0.4,0,0.5-0.1,0.5-0.5c0-2.3,0-2.5,0-4.8c0-0.4,0.1-0.5,0.5-0.5
	c1.3,0,2.6,0,3.9,0c0.3,0,0.4,0.1,0.4,0.4c0,2.4,0,2.6,0,5c0,0.3,0.1,0.5,0.4,0.4c1.1,0,2.2,0,3.2,0c0.3,0,0.4,0,0.4,0.4
	c0,1.4,0,2.7,0,4.1c0,0.3-0.1,0.4-0.4,0.3c-1.1,0-2.2,0-3.3,0c-0.4,0-0.4,0.1-0.4,0.5c0,4.9,0,9.7,0,14.6c0,0.5-0.1,0.5-0.6,0.5
	c-1.3,0-2.5,0-3.8,0c-0.4,0-0.4-0.1-0.4-0.4C74.8,23.4,74.8,20.9,74.8,18.4z"/>
<path fill="#ED1C24" d="M24,20.3c0.1-1.8-0.2-3.9,0.2-6.1c0.7-4.1,4.5-7.7,8.6-8.1c1.4-0.1,1.4-0.1,1.4,1.2c0,1.1,0,2.1,0,3.2
	c0,0.3-0.1,0.4-0.4,0.4c-2.7,0.1-4.9,2.4-4.9,5.1c0,3.3,0,6.6,0,9.9c0,0.4-0.1,0.5-0.5,0.5c-1.3,0-2.7,0-4,0c-0.3,0-0.4-0.1-0.4-0.4
	C24,24.2,24,22.4,24,20.3z"/>
<path fill="#1E1815" d="M67,16.3c0,3.2,0,6.4,0,9.6c0,0.3-0.1,0.4-0.4,0.4c-1.3,0-2.7,0-4,0c-0.3,0-0.4-0.1-0.4-0.3
	c0-6.5,0-13,0-19.4c0-0.3,0.1-0.3,0.3-0.3c1.4,0,2.8,0,4.1,0c0.4,0,0.4,0.2,0.4,0.4C67,9.8,67,13,67,16.3z"/>
<path fill="#58595B" d="M8.9,6.3c2.6-0.6,5-0.1,7.3,1.3c4.2,2.7,5.9,7.7,4.2,12.2c0,0.1-0.1,0.2-0.2,0.4c0-1.5-0.5-2.4-1.7-2.8
	c-1.1-0.3-2,0-2.7,0.8c0.8-2.7,0.1-4.9-1.9-6.3c-1.3-1-2.8-1-4.4-0.8c-1.2-0.4-2-1.1-2.1-2.4C7.4,7.6,8,6.8,8.9,6.3z"/>
<path fill="#1E1815" d="M15.8,18.3c0.8-0.8,1.7-1.1,2.7-0.8c1.2,0.4,1.7,1.3,1.7,2.8c-1,2.4-2.7,4.2-5.1,5.3
	c-4.3,2-9.3,0.7-12.3-2.9c0-0.1-0.1-0.1-0.1-0.2c0.1,0,0.2,0.1,0.3,0.1c1.5,0.8,3.2-0.1,3.6-1.7c0.1-0.5,0-0.9-0.1-1.4
	c0.1,0.1,0.1,0.1,0.2,0.2c1.8,2.2,5,2.5,7.3,0.8C14.9,19.9,15.3,19.1,15.8,18.3z"/>
<path fill="#414042" d="M6.6,19.5c0,0.5,0.2,0.9,0.1,1.4c-0.3,1.6-2.1,2.5-3.6,1.7c-0.1-0.1-0.2-0.1-0.3-0.1c0,0,0,0,0,0
	c0,0-0.1-0.1-0.1-0.1c-1.1-1.3-1.7-2.9-1.9-4.6C-0.1,12.6,3.4,7.5,8.5,6.4c0.1,0,0.3,0,0.4,0c-1,0.5-1.5,1.3-1.5,2.4
	c0.1,1.3,0.9,2,2.1,2.4C6.1,12.1,4.3,16,6.6,19.5C6.5,19.4,6.5,19.5,6.6,19.5L6.6,19.5z"/>
<path fill="#414042" d="M88.9,8.2c2-1.7,4.4-2.5,7.1-2.3c5,0.3,8.9,4,9.5,8.8c0,0.1,0,0.3,0,0.4c-0.7-1.3-1.6-1.9-2.8-1.6
	c-1.1,0.2-1.7,1-2,2c-0.6-2.7-2.2-4.3-4.7-4.6c-1.6-0.2-3,0.4-4.2,1.4c-1.2,0.2-2.3,0-3-1.1C88.1,10.1,88.3,9.1,88.9,8.2z"/>
<path fill="#58595B" d="M93.1,20.9c0.2,0.4,0.6,0.7,0.7,1.2c0.5,1.6-0.7,3.2-2.4,3.2c-0.1,0-0.2,0-0.3,0c0,0,0,0,0,0
	c0,0-0.1,0-0.1,0c-1.6-0.6-2.8-1.8-3.8-3.1c-3.2-4.2-2.6-10.3,1.4-13.8c0.1-0.1,0.2-0.2,0.3-0.2c-0.6,0.9-0.7,1.9-0.2,2.8
	c0.7,1.1,1.7,1.4,3,1.1c-2.5,2.4-2.2,6.7,1.3,8.7C93,20.9,93,20.9,93.1,20.9L93.1,20.9z"/>
<path fill="#D10514" d="M46.3,6c2.6-0.6,5-0.1,7.3,1.3c4.2,2.7,5.9,7.7,4.2,12.2c0,0.1-0.1,0.2-0.2,0.4c0-1.5-0.5-2.4-1.7-2.8
	c-1.1-0.3-2,0-2.7,0.8c0.8-2.7,0.1-4.9-1.9-6.3c-1.3-1-2.8-1-4.4-0.8c-1.2-0.4-2-1.1-2.1-2.4C44.8,7.3,45.4,6.5,46.3,6z"/>
<path fill="#FF1A1A" d="M44,19.2c0,0.5,0.2,0.9,0.1,1.4c-0.3,1.6-2.1,2.5-3.6,1.7c-0.1-0.1-0.2-0.1-0.3-0.1c0,0,0,0,0,0
	c0,0-0.1-0.1-0.1-0.1c-1.1-1.3-1.7-2.9-1.9-4.6C37.3,12.3,40.8,7.2,45.9,6c0.1,0,0.3,0,0.4,0c-1,0.5-1.5,1.3-1.5,2.4
	c0.1,1.3,0.9,2,2.1,2.4C43.5,11.8,41.7,15.7,44,19.2C43.9,19.1,44,19.1,44,19.2L44,19.2z"/>
<path fill="#1E1815" d="M3,22.4c0,0,0.1,0.1,0.1,0.1C3,22.4,3,22.4,3,22.4z"/>
<path fill="#1E1815" d="M6.8,19.4c0,0,0.1,0.1,0.1,0.1C6.9,19.5,6.8,19.4,6.8,19.4z"/>
<path fill="#1E1815" d="M93.9,26.1c0,0,0.1,0,0.1,0C93.9,26.1,93.9,26.1,93.9,26.1z"/>
<path fill="#1E1815" d="M94.5,21.3c0,0,0.1,0,0.1,0C94.6,21.3,94.5,21.3,94.5,21.3z"/>
</svg>
